<?xml version="1.0" encoding="UTF-8" standalone="no"?>
<svg
   width="900px"
   height="900px"
   viewBox="0 0 900 900"
   version="1.1"
   xml:space="preserve"
   id="SVGRoot"
   inkscape:version="1.4.2 (f4327f4, 2025-05-13)"
   sodipodi:docname="semana 11- Lian Alvear.svg"
   inkscape:export-filename="semana 11- Lian Alvear.png"
   inkscape:export-xdpi="96"
   inkscape:export-ydpi="96"
   xmlns:inkscape="http://www.inkscape.org/namespaces/inkscape"
   xmlns:sodipodi="http://sodipodi.sourceforge.net/DTD/sodipodi-0.dtd"
   xmlns="http://www.w3.org/2000/svg"
   xmlns:svg="http://www.w3.org/2000/svg"><defs
   id="defs3" />
<sodipodi:namedview
   pagecolor="#a9a9a9"
   bordercolor="#292929"
   borderopacity="1"
   inkscape:showpageshadow="2"
   inkscape:pageopacity="0.0"
   inkscape:pagecheckerboard="0"
   inkscape:deskcolor="#232323"
   id="namedview1"
   inkscape:zoom="0.69666667"
   inkscape:cx="450"
   inkscape:cy="450"
   inkscape:window-width="1584"
   inkscape:window-height="813"
   inkscape:window-x="-11"
   inkscape:window-y="10"
   inkscape:window-maximized="0"
   inkscape:current-layer="SVGRoot" />
<style
   type="text/css"
   id="style1">
g.prefab path {
  vector-effect:non-scaling-stroke;
  -inkscape-stroke:hairline;
  fill: none;
  fill-opacity: 1;
  stroke-opacity: 1;
  stroke: #00349c;
}
</style>
<g
   inkscape:label="Double Vision"
   style="fill: white; stroke-width: 2; stroke: black;"
   class="prefab"
   id="g3">
  <path
   d="M 854.44504,46.327501 H 54.445038 V 135.21639 H 854.44504 Z m 0,177.777779 H 54.445038 v 88.88889 H 854.44504 Z m 0,177.77778 H 54.445038 v 88.8889 H 854.44504 Z m 0,177.77778 H 54.445038 v 88.88892 H 854.44504 Z m 0,177.77775 H 54.445038 v 88.8889 H 854.44504 Z M 54.445038,46.3275 V 846.32749 H 143.33393 V 46.3275 Z m 177.777792,0 v 799.99999 h 88.88888 V 46.3275 Z m 177.77777,0 v 799.99999 h 88.88889 V 46.3275 Z m 177.77778,0 v 799.99999 h 88.88889 V 46.3275 Z m 177.77777,0 v 799.99999 h 88.88889 V 46.3275 Z"
   id="path1" />
  <path
   d="M 365.55637,135.21617 A 311.11111,311.11111 0 0 0 54.445036,446.32749 311.11111,311.11111 0 0 0 365.55637,757.43882 311.11111,311.11111 0 0 0 676.6677,446.32749 311.11111,311.11111 0 0 0 365.55637,135.21617 Z m 0,88.88867 A 222.22223,222.22223 0 0 1 587.77902,446.32749 222.22223,222.22223 0 0 1 365.55637,668.55015 222.22223,222.22223 0 0 1 143.33371,446.32749 222.22223,222.22223 0 0 1 365.55637,224.10484 Z m 0,88.88867 A 133.33334,133.33333 0 0 0 232.22238,446.32749 133.33334,133.33333 0 0 0 365.55637,579.66148 133.33334,133.33333 0 0 0 498.89035,446.32749 133.33334,133.33333 0 0 0 365.55637,312.99351 Z m 0,88.88867 a 44.444447,44.444447 0 0 1 44.44336,44.44531 44.444447,44.444447 0 0 1 -44.44336,44.44532 44.444447,44.444447 0 0 1 -44.44531,-44.44532 44.444447,44.444447 0 0 1 44.44531,-44.44531 z"
   id="path2" />
  <path
   d="M 543.33371,135.21617 A 311.11111,311.11111 0 0 0 232.22238,446.32749 311.11111,311.11111 0 0 0 543.33371,757.43882 311.11111,311.11111 0 0 0 854.44504,446.32749 311.11111,311.11111 0 0 0 543.33371,135.21617 Z m 0,88.88867 A 222.22224,222.22223 0 0 1 765.55637,446.32749 222.22224,222.22223 0 0 1 543.33371,668.55015 222.22224,222.22223 0 0 1 321.11106,446.32749 222.22224,222.22223 0 0 1 543.33371,224.10484 Z m 0,88.88867 A 133.33336,133.33333 0 0 0 409.99973,446.32749 133.33336,133.33333 0 0 0 543.33371,579.66148 133.33336,133.33333 0 0 0 676.6677,446.32749 133.33336,133.33333 0 0 0 543.33371,312.99351 Z m 0,88.88867 a 44.444447,44.444447 0 0 1 44.44531,44.44531 44.444447,44.444447 0 0 1 -44.44531,44.44532 44.444447,44.444447 0 0 1 -44.44336,-44.44532 44.444447,44.444447 0 0 1 44.44336,-44.44531 z"
   id="path3" />
</g>
<path
   style="fill:#338000;stroke-width:1.43541"
   d="m 351.41044,486.93716 c -7.9737,-3.08747 -17.58282,-10.84946 -21.94329,-17.7252 -18.30377,-28.86205 2.89701,-65.91685 37.43392,-65.42715 11.66999,0.16547 21.32123,4.70801 29.86546,14.05676 15.12414,16.54822 15.66225,39.47963 1.30907,55.7857 -9.30207,10.56771 -16.76263,14.15505 -30.47927,14.65566 -6.82386,0.24904 -13.50085,-0.30611 -16.18589,-1.34577 z"
   id="path4" /><path
   style="fill:#338000;stroke-width:1.43541"
   d="m 527.97736,486.40545 c -8.62166,-3.055 -18.31813,-12.22479 -22.99246,-21.74358 -5.62828,-11.46142 -5.69661,-26.43435 -0.16845,-36.91067 8.18922,-15.51925 21.7235,-23.93752 38.48499,-23.93752 16.42294,0 30.58479,8.77603 38.48088,23.84643 3.19753,6.10276 3.80811,9.10933 3.80811,18.75137 0,9.67399 -0.60686,12.64195 -3.85167,18.83735 -4.78955,9.14479 -14.97082,18.27161 -23.70088,21.24624 -8.17526,2.78559 -22.0631,2.74419 -30.06052,-0.0896 z"
   id="path5" /><path
   style="fill:#338000;stroke-width:1.43541"
   d="m 322.2488,181.64399 v -41.56175 l 5.38278,-1.1416 c 6.90029,-1.46344 71.57663,-1.49425 76.79426,-0.0366 3.90342,1.09051 3.94737,1.23636 3.94737,13.1006 v 11.99782 l -16.32776,8.9889 c -19.56418,10.77064 -36.79959,22.8846 -54.90881,38.59282 -7.36884,6.39185 -13.73313,11.62154 -14.14286,11.62154 -0.40974,0 -0.74498,-18.70279 -0.74498,-41.56175 z"
   id="path6" /><path
   style="fill:#338000;stroke-width:1.43541"
   d="m 589.23445,181.5516 v -41.65414 l 3.22966,0.69278 c 1.77632,0.38103 8.6363,1.74358 15.24439,3.02789 14.71666,2.86023 38.90123,10.42385 55.35982,17.31355 l 12.29053,5.14492 v 28.56457 28.56457 h -43.0622 -43.0622 z"
   id="path7" /><path
   style="fill:#338000;stroke-width:1.43541"
   d="m 576.42038,215.83225 c -17.91651,-16.70652 -39.94685,-32.37359 -62.36782,-44.35342 l -13.81333,-7.38065 v -12.00797 -12.00797 l 5.38278,-1.1416 c 6.99937,-1.48445 68.35948,-1.48445 75.35885,0 l 5.38278,1.1416 v 41.56175 c 0,22.85896 -0.48445,41.53713 -1.07656,41.50703 -0.5921,-0.0301 -4.58212,-3.32354 -8.8667,-7.31877 z"
   id="path8" /><path
   style="fill:#338000;stroke-width:1.43541"
   d="m 411.24402,151.42732 c 0,-11.20523 0.0909,-11.51036 3.22966,-10.83708 1.77632,0.38103 8.68947,1.75443 15.36257,3.05199 6.67309,1.29756 13.45539,2.87122 15.07177,3.49701 2.92045,1.13068 2.92087,1.14462 0.0681,2.22393 -6.53587,2.47271 -23.33642,9.17195 -28.34929,11.30431 l -5.38277,2.28971 z"
   id="path9" /><path
   style="fill:#338000;stroke-width:1.43541"
   d="m 233.25359,194.67537 v -28.53036 l 13.99521,-5.74387 c 21.28655,-8.73634 45.17047,-15.66147 67.46412,-19.56118 l 4.66507,-0.81604 v 41.59091 41.59091 h -43.0622 -43.0622 z"
   id="path10" /><path
   style="fill:#338000;stroke-width:1.43541"
   d="m 159.15911,215.64955 c 18.36997,-16.35521 55.66384,-41.51957 68.7117,-46.3638 2.33724,-0.86774 2.51197,0.97507 2.51197,26.49369 v 27.4263 l -39.83254,-0.0203 -39.83254,-0.0203 z"
   id="path11" /><path
   style="fill:#338000;stroke-width:1.43541"
   d="m 144.25837,270.86124 c 0,-30.23923 0.46252,-41.80223 1.72249,-43.0622 1.25997,-1.25997 12.82297,-1.72248 43.0622,-1.72248 h 41.33972 v 21.5311 c 0,12.07347 -0.57728,21.5311 -1.31422,21.5311 -2.08872,0 -30.85557,28.00558 -36.87614,35.90027 l -5.46176,7.16193 h -21.23614 -21.23615 z"
   id="path12" /><path
   style="fill:#338000;stroke-width:1.43541"
   d="m 93.966867,298.38763 c 10.981293,-20.55216 24.974693,-40.39459 42.897373,-60.82782 l 4.40665,-5.02392 0.0583,39.83253 0.0583,39.83254 h -27.4006 -27.400667 z"
   id="path13" /><path
   style="fill:#338000;stroke-width:1.43541"
   d="m 60.259757,394.37799 c 2.741266,-18.38991 15.870781,-61.22554 22.97999,-74.97323 l 2.240674,-4.33299 h 27.953569 27.95357 v 43.0622 43.0622 H 100.31549 59.243415 Z"
   id="path14" /><path
   style="fill:#338000;stroke-width:1.43541"
   d="m 144.25837,358.13397 v -43.0622 h 20.14918 20.14918 l -5.58171,8.25359 c -13.05965,19.31111 -24.61966,45.44914 -29.98164,67.79072 -1.33057,5.54405 -2.94027,10.08009 -3.57711,10.08009 -0.63684,0 -1.1579,-19.37799 -1.1579,-43.0622 z"
   id="path15" /><path
   style="fill:#338000;stroke-width:1.43541"
   d="m 233.25359,245.45455 v -19.37799 l 43.42105,0.0436 c 24.24542,0.0244 42.4702,0.57669 41.26794,1.25066 -1.18421,0.66385 -5.70574,2.02604 -10.04784,3.02708 -18.16687,4.18827 -44.46459,15.83737 -63.56151,28.15584 -5.35356,3.45331 -10.03658,6.27876 -10.4067,6.27876 -0.37012,0 -0.67294,-8.7201 -0.67294,-19.37799 z"
   id="path16" /><path
   style="fill:#338000;stroke-width:1.43541"
   d="m 481.57895,156.40649 c -8.28948,-3.42061 -16.36364,-6.64752 -17.94259,-7.17091 -2.01491,-0.6679 0.98075,-1.91397 10.04785,-4.17949 7.10526,-1.77533 15.34091,-3.60937 18.30144,-4.07566 l 5.38277,-0.84779 v 11.39301 c 0,6.26616 -0.16148,11.32712 -0.35885,11.24658 -0.19737,-0.0805 -7.14115,-2.94512 -15.43062,-6.36574 z"
   id="path17" /><path
   style="fill:#338000;stroke-width:1.43541"
   d="m 678.22967,195.93301 c 0,-15 0.34138,-27.27272 0.75863,-27.27272 0.41725,0 4.7773,2.01632 9.689,4.48071 17.36858,8.7145 45.57593,28.45333 62.0404,43.41441 l 7.17704,6.52168 -39.83254,0.0643 -39.83253,0.0643 z"
   id="path18" /><path
   style="fill:#338000;stroke-width:1.43541"
   d="m 718.72446,307.35635 c -4.05717,-5.95897 -29.48146,-31.31633 -35.80492,-35.71066 l -4.64027,-3.22464 -0.0248,-21.17225 -0.0248,-21.17224 h 41.33971 c 30.23923,0 41.80223,0.46251 43.0622,1.72248 1.25997,1.25997 1.72249,12.82297 1.72249,43.0622 v 41.33972 l -21.17225,-0.01 -21.17225,-0.01 z"
   id="path19" /><path
   style="fill:#338000;stroke-width:1.43541"
   d="m 669.78067,261.8845 c -11.67227,-9.72108 -46.48711,-25.74541 -68.21461,-31.39734 -6.24393,-1.62421 -11.68053,-3.28105 -12.08134,-3.68186 -0.40081,-0.40081 18.75691,-0.72874 42.5727,-0.72874 h 43.30143 v 19.37799 c 0,10.65789 -0.48445,19.3565 -1.07655,19.33023 -0.59211,-0.0263 -2.61784,-1.33139 -4.50163,-2.90028 z"
   id="path20" /><path
   style="fill:#338000;stroke-width:1.43541"
   d="m 767.22488,272.72727 c 0,-21.71052 0.2799,-39.47368 0.62199,-39.47368 1.59234,0 24.83966,29.31546 32.95508,41.55718 8.71191,13.14151 20.96838,34.43918 20.96838,36.43609 0,0.52475 -12.27272,0.9541 -27.27272,0.9541 h -27.27273 z"
   id="path21" /><path
   style="fill:#338000;stroke-width:1.43541"
   d="m 767.22488,358.13397 v -43.0622 l 28.34928,0.0159 28.34928,0.0159 4.13508,9.67307 c 8.90196,20.82412 20.98454,63.50878 20.98454,74.13301 0,2.03822 -4.44183,2.28648 -40.90909,2.28648 h -40.90909 z"
   id="path22" /><path
   style="fill:#000000;stroke-width:1.43541"
   d="m 762.2168,399.40191 c -0.33647,-0.98684 -1.66443,-5.99282 -2.95103,-11.1244 -4.85288,-19.35575 -15.74869,-44.06809 -27.39176,-62.1261 -3.45176,-5.35356 -6.27592,-10.03658 -6.27592,-10.4067 0,-0.37011 8.72009,-0.67294 19.37799,-0.67294 h 19.37799 v 43.0622 c 0,23.68421 -0.34324,43.0622 -0.76276,43.0622 -0.41951,0 -1.03804,-0.80741 -1.37451,-1.79426 z"
   id="path23" /><path
   style="fill:#000000;stroke-width:1.43541"
   d="m 57.39828,477.63158 c -1.31502,-13.63386 -1.070723,-55.60617 0.386405,-66.38756 l 1.06699,-7.89474 41.267945,-0.38086 41.26794,-0.38087 v 43.08422 43.08421 H 99.929409 58.471257 Z"
   id="path24" /><path
   style="fill:#000000;stroke-width:1.43541"
   d="M 81.699221,569.72515 C 73.135272,550.36054 63.41481,517.69245 60.276093,497.72727 l -0.959053,-6.10048 h 41.03526 41.03526 V 534.689 577.7512 H 113.31814 85.248721 Z"
   id="path25" /><path
   style="fill:#000000;stroke-width:1.43541"
   d="m 144.25837,534.689 c 0,-23.68422 0.54315,-43.06221 1.20699,-43.06221 0.66385,0 2.03465,3.71412 3.04623,8.25359 4.49954,20.19168 18.23772,51.64823 30.33953,69.46894 l 5.70561,8.40188 h -20.14918 -20.14918 z"
   id="path26" /><path
   style="fill:#000000;stroke-width:1.43541"
   d="m 139.22711,657.5929 c -0.78544,-1.08706 -5.76357,-6.97027 -11.06252,-13.07378 -11.63608,-13.40285 -25.83872,-34.30287 -34.886333,-51.3373 L 86.60728,580.62201 h 27.39014 27.39014 v 39.47368 c 0,21.71053 -0.16479,39.47369 -0.36619,39.47369 -0.20141,0 -1.00883,-0.88942 -1.79426,-1.97648 z"
   id="path27" /><path
   style="fill:#000000;stroke-width:1.43541"
   d="m 145.98086,665.02392 c -1.25997,-1.25996 -1.72249,-12.82296 -1.72249,-43.0622 v -41.33971 h 21.36602 c 20.99985,0 21.4049,0.0593 23.63502,3.46294 3.86222,5.89449 26.50774,29.04315 34.00542,34.76096 l 7.11795,5.42821 v 21.23615 21.23614 h -41.33972 c -30.23923,0 -41.80223,-0.46252 -43.0622,-1.72249 z"
   id="path28" /><path
   style="fill:#000000;stroke-width:1.43541"
   d="m 216.02871,717.25361 c -21.63322,-12.15779 -40.8491,-25.88337 -57.88613,-41.34708 l -6.9292,-6.28931 h 39.5847 39.5847 v 27.27273 c 0,15 -0.48445,27.26099 -1.07656,27.24665 -0.59211,-0.0144 -6.56699,-3.11169 -13.27751,-6.88299 z"
   id="path29" /><path
   style="fill:#000000;stroke-width:1.43541"
   d="m 301.82735,749.2681 c -18.84028,-4.10648 -33.49803,-8.65907 -53.39445,-16.58395 l -15.17931,-6.04603 v -28.51045 -28.51045 h 43.0622 43.0622 v 41.6268 c 0,22.89474 -0.48445,41.5713 -1.07655,41.50348 -0.59211,-0.0678 -8.00545,-1.63355 -16.47409,-3.4794 z"
   id="path30" /><path
   style="fill:#000000;stroke-width:1.43541"
   d="m 233.25359,647.36842 c 0,-10.65789 0.36807,-19.37799 0.81793,-19.37799 0.44986,0 3.79695,2.04962 7.43797,4.55471 12.81371,8.81606 38.63898,21.01407 55.64894,26.28457 9.4576,2.93042 18.4875,5.86677 20.06645,6.52522 1.62816,0.67897 -15.92433,1.23924 -40.55024,1.29433 l -43.42105,0.0971 z"
   id="path31" /><path
   style="fill:#000000;stroke-width:1.43541"
   d="m 338.75598,754.89101 c -2.36842,-0.33393 -7.05143,-0.96466 -10.4067,-1.40162 l -6.10048,-0.79448 v -41.53884 c 0,-22.84637 0.398,-41.53885 0.88445,-41.53885 0.48644,0 5.16945,3.73816 10.40669,8.30701 22.01596,19.20624 39.52398,31.53005 62.88316,44.26315 l 11.95011,6.51401 v 11.91737 c 0,11.8151 -0.0339,11.92548 -3.94737,12.86095 -4.66309,1.11464 -59.42652,2.29156 -65.66986,1.4113 z"
   id="path32" /><path
   style="fill:#000000;stroke-width:1.43541"
   d="m 516.02871,754.90742 c -1.97369,-0.35175 -6.33373,-0.99347 -9.689,-1.42603 l -6.10048,-0.78648 V 740.7435 728.79208 l 15.38716,-8.41518 c 18.7514,-10.25507 39.97793,-25.16063 56.68194,-39.80282 6.87484,-6.02627 12.84972,-10.95686 13.27751,-10.95686 0.42779,0 0.7778,18.65676 0.7778,41.45946 v 41.45946 l -3.94737,0.92581 c -4.76681,1.118 -61.31646,2.34927 -66.38756,1.44547 z"
   id="path33" /><path
   style="fill:#000000;stroke-width:1.43541"
   d="m 678.22967,696.88995 v -27.27273 l 39.83253,0.0552 39.83254,0.0552 -7.17704,6.45511 c -10.52307,9.46459 -31.34939,25.0024 -44.57291,33.25433 -10.97753,6.85037 -25.49726,14.72571 -27.1497,14.72571 -0.42099,0 -0.76542,-12.27273 -0.76542,-27.27273 z"
   id="path34" /><path
   style="fill:#000000;stroke-width:1.43541"
   d="m 589.23445,711.34075 v -41.72353 h 43.0622 43.0622 v 28.70814 c 0,15.78947 -0.18849,28.70813 -0.41887,28.70813 -0.23038,0 -6.85119,2.6365 -14.71292,5.85889 -16.05502,6.58069 -42.76804,14.61968 -56.71455,17.06763 -5.08978,0.89338 -10.38452,1.95731 -11.7661,2.3643 -2.3517,0.69275 -2.51196,-1.92192 -2.51196,-40.98356 z"
   id="path35" /><path
   style="fill:#000000;stroke-width:1.43541"
   d="m 589.23445,666.08403 c 0,-0.3643 2.74522,-1.35213 6.10048,-2.19518 23.03113,-5.78679 53.19398,-18.76029 69.73902,-29.99581 4.78058,-3.24643 9.05038,-5.90261 9.48844,-5.90261 0.43805,0 0.79646,8.7201 0.79646,19.37799 v 19.37799 h -43.0622 c -23.68421,0 -43.0622,-0.29807 -43.0622,-0.66238 z"
   id="path36" /><path
   style="fill:#000000;stroke-width:1.43541"
   d="m 678.22967,645.21531 c 0,-12.48304 0.56709,-21.5311 1.34947,-21.5311 1.99168,0 33.11224,-30.31169 38.12421,-37.1333 l 4.30622,-5.86104 21.17225,-0.0339 21.17225,-0.0339 v 41.33971 c 0,30.23924 -0.46252,41.80224 -1.72249,43.0622 -1.25997,1.25997 -12.82297,1.72249 -43.0622,1.72249 h -41.33971 z"
   id="path37" /><path
   style="fill:#000000;stroke-width:1.43541"
   d="m 767.22488,620.09569 v -39.47368 h 27.27273 c 15,0 27.27272,0.45095 27.27272,1.00211 0,1.70693 -14.38411,26.42178 -21.97285,37.75387 -6.96257,10.39704 -30.63692,40.19139 -31.93575,40.19139 -0.35027,0 -0.63685,-17.76316 -0.63685,-39.47369 z"
   id="path38" /><path
   style="fill:#000000;stroke-width:1.43541"
   d="m 767.22488,534.689 v -43.06221 h 40.90909 c 36.08022,0 40.90909,0.26393 40.90909,2.23594 0,11.16643 -14.71179,61.83785 -22.30351,76.8194 l -3.58217,7.06907 h -27.96625 -27.96625 z"
   id="path39" /><path
   style="fill:#000000;stroke-width:1.43541"
   d="m 767.22488,445.69378 v -43.0622 h 41.50433 41.50432 l 1.16106,11.1244 c 1.52707,14.63132 1.54801,49.86557 0.038,63.8756 l -1.19903,11.1244 h -41.50432 -41.50433 z"
   id="path40" /><path
   style="fill:#225500;stroke-width:1.43541"
   d="m 725.59809,577.08192 c 0,-0.36809 2.63819,-4.72814 5.86265,-9.68899 12.36437,-19.02264 26.81265,-53.3982 29.49558,-70.17633 2.28782,-14.30725 3.39775,-2.06633 3.39775,37.4724 v 43.0622 h -19.37799 c -10.6579,0 -19.37799,-0.30118 -19.37799,-0.66928 z"
   id="path41" /><path
   style="fill:#000000;stroke-width:1.43541"
   d="m 761.71643,394.73684 c -0.1515,-1.57895 -2.80165,-10.3778 -5.88922,-19.55302 -5.80264,-17.24349 -14.79794,-36.33767 -23.58534,-50.0642 l -5.05402,-7.89474 8.89411,-0.90878 c 4.89177,-0.49983 13.25416,-0.98428 18.58311,-1.07655 l 9.689,-0.16778 -0.18532,19.73684 c -0.19685,20.96578 -1.98888,64.75832 -2.45232,59.92823 z"
   id="path42" /><path
   style="fill:#ff0000;stroke-width:1.43541"
   d="m 735.25836,576.43334 -8.28232,-0.83525 3.42021,-5.02393 c 10.68371,-15.69324 24.60412,-46.89914 29.47252,-66.06961 l 2.58826,-10.19189 0.94475,29.15946 c 0.51961,16.0377 0.94644,34.81137 0.94852,41.71927 l 0.004,12.55981 -10.4067,-0.24131 c -5.72369,-0.13271 -14.13374,-0.61716 -18.68901,-1.07655 z"
   id="path43" /><path
   style="fill:#ff0000;stroke-width:1.43541"
   d="m 305.25086,563.25292 c -23.80342,-12.20452 -44.18825,-32.78195 -56.96189,-57.50007 -3.53262,-6.83593 -6.42294,-12.81081 -6.42294,-13.27751 0,-0.4667 17.44019,-0.84855 38.75598,-0.84855 h 38.75598 v 38.75599 c 0,22.70137 -0.54837,38.75598 -1.32377,38.75598 -0.72807,0 -6.48958,-2.64863 -12.80336,-5.88584 z"
   id="path44" /><path
   style="fill:#ff0000;stroke-width:1.43541"
   d="m 239.11468,483.37321 c -7.03154,-26.53114 -7.21267,-46.96311 -0.63626,-71.77034 l 2.37829,-8.97129 h 39.26064 39.26064 v 43.0622 43.0622 h -39.41836 -39.41836 z"
   id="path45" /><path
   style="fill:#ff0000;stroke-width:1.43541"
   d="m 241.86603,400.33816 c 0,-0.47191 2.68288,-6.2723 5.96196,-12.88976 9.78507,-19.7471 25.51317,-37.6446 44.27727,-50.38452 7.27584,-4.93994 23.54788,-13.37967 25.79639,-13.37967 0.97506,0 1.47634,13.15923 1.47634,38.75598 v 38.75598 h -38.75598 c -21.31579,0 -38.75598,-0.3861 -38.75598,-0.85801 z"
   id="path46" /><path
   style="fill:#ff0000;stroke-width:1.43541"
   d="m 322.5844,361.73228 0.38211,-40.08455 8.60109,-2.61796 c 8.7226,-2.65494 29.43718,-5.11481 29.43718,-3.49568 0,0.48596 -2.82416,5.26376 -6.27592,10.61732 -11.83294,18.3525 -21.16415,39.47299 -26.84243,60.75584 -1.78082,6.6747 -3.78826,12.75991 -4.46099,13.5227 -0.67663,0.76722 -1.05241,-16.52312 -0.84104,-38.69767 z"
   id="path47" /><path
   style="fill:#ff0000;stroke-width:1.43541"
   d="m 327.99043,398.36754 c 0,-5.44054 11.1825,-36.82129 17.85704,-50.11109 3.70327,-7.37365 9.74667,-17.93844 13.42977,-23.47732 l 6.69655,-10.07067 11.51071,0.75458 c 6.33089,0.41502 15.87076,1.86715 21.19971,3.22697 l 9.689,2.4724 v 40.01688 40.01688 h -40.19139 c -39.03467,0 -40.19139,-0.0814 -40.19139,-2.82863 z"
   id="path48" /><path
   style="fill:#ff0000;stroke-width:1.43541"
   d="m 419.85646,400.5194 c 0,-0.37223 1.5701,-4.22706 3.48912,-8.56629 4.7154,-10.66236 14.70441,-25.672 23.46211,-35.25455 l 7.21517,-7.89473 4.59776,4.30622 c 10.14706,9.50364 26.10682,33.87962 29.369,44.85646 l 0.95982,3.22966 h -34.54649 c -19.00057,0 -34.54649,-0.30455 -34.54649,-0.67677 z"
   id="path49" /><path
   style="fill:#ff0000;stroke-width:1.43541"
   d="m 435.28708,400.12607 c -7.69737,-0.25809 -13.99521,-0.78726 -13.99521,-1.17592 0,-0.38866 2.0262,-4.72532 4.50267,-9.63702 5.82425,-11.55152 13.62362,-22.99511 21.76625,-31.93644 l 6.4999,-7.13746 5.19329,4.99182 c 9.20658,8.84942 28.06659,38.38788 28.06659,43.95777 0,2.04575 -12.34335,2.26808 -52.03349,0.93725 z"
   id="path50" /><path
   style="fill:#ff0000;stroke-width:1.43541"
   d="m 416.36218,481.24464 c -6.66092,-23.38668 -6.61179,-45.90884 0.15348,-70.35947 l 2.2837,-8.25359 h 35.6404 35.64041 l 2.12905,7.16929 c 5.94454,20.01743 6.45318,47.71516 1.25224,68.18956 l -2.55237,10.04785 -36.19678,0.3834 -36.19679,0.3834 z"
   id="path51" /><path
   style="fill:#ff0000;stroke-width:1.43541"
   d="m 444.8241,533.61244 c -9.82891,-11.57629 -16.87268,-22.32795 -21.53624,-32.87309 -1.88727,-4.26745 -3.4314,-8.06355 -3.4314,-8.43578 0,-0.37223 15.54592,-0.67678 34.54649,-0.67678 h 34.54649 l -1.00033,3.22967 c -1.68949,5.45468 -7.93031,17.1818 -13.55889,25.47847 -6.14785,9.06208 -18.33325,22.96651 -20.12713,22.96651 -0.66687,0 -4.91442,-4.36005 -9.43899,-9.689 z"
   id="path52" /><path
   style="fill:#ff0000;stroke-width:1.43541"
   d="m 411.24402,362.44019 c 0,-22.54469 0.55064,-38.75598 1.3164,-38.75598 4.44579,0 25.98266,12.18251 36.58269,20.69331 2.63367,2.11457 2.52896,2.41345 -2.91967,8.33369 -9.71765,10.55877 -17.30613,21.49598 -23.37998,33.69733 -3.2218,6.47207 -5.85781,12.44695 -5.85781,13.27751 0,0.83057 -1.29187,1.51012 -2.87082,1.51012 -2.79993,0 -2.87081,-0.95694 -2.87081,-38.75598 z"
   id="path53" /><path
   style="fill:#ff0000;stroke-width:1.43541"
   d="m 405.52507,424.21742 c -2.18559,-5.27648 -14.27402,-16.74891 -20.50009,-19.45545 -4.40866,-1.9165 -3.93812,-2.02085 9.35301,-2.07421 l 13.99522,-0.0562 v 12.91866 c 0,7.10526 -0.24461,12.91866 -0.54356,12.91866 -0.29896,0 -1.33602,-1.91317 -2.30458,-4.25148 z"
   id="path54" /><path
   style="fill:#ff0000;stroke-width:1.43541"
   d="m 324.30287,419.13876 c 0.52891,-3.94737 1.3239,-9.27632 1.76665,-11.84211 l 0.805,-4.66507 11.68236,0.0634 11.68235,0.0634 -5.74162,2.97297 c -7.07159,3.66161 -11.32041,7.39914 -16.87322,14.84273 l -4.28317,5.74163 z"
   id="path55" /><path
   style="fill:#ff0000;stroke-width:1.43541"
   d="m 408.89746,475.11962 c 0.004,-7.89474 0.24478,-10.94127 0.53566,-6.77007 0.29087,4.1712 0.28781,10.63053 -0.007,14.35407 -0.29461,3.72354 -0.5326,0.31073 -0.52886,-7.584 z"
   id="path56" /><path
   style="fill:#ff0000;stroke-width:1.43541"
   d=""
   id="path57" /><path
   style="fill:#ff0000;stroke-width:1.43541"
   d="m 411.35734,481.9378 c 0.11998,-7.21905 0.3301,-7.1011 2.55718,1.43541 1.13525,4.35147 1.01396,5.38277 -0.6331,5.38277 -1.48955,0 -2.00693,-1.83338 -1.92408,-6.81818 z"
   id="path58" /><path
   style="fill:#ff0000;stroke-width:1.43541"
   d="m 390.57411,484.6346 c 6.96605,-5.12844 12.46628,-11.08317 15.41798,-16.69202 2.22263,-4.22347 2.26728,-4.06488 2.32364,8.25359 l 0.0575,12.55981 h -11.69862 -11.69862 z"
   id="path59" /><path
   style="fill:#ff0000;stroke-width:1.43541"
   d="m 326.00574,484.80861 c -0.42757,-2.17105 -1.2174,-7.17703 -1.75518,-11.1244 l -0.97779,-7.17703 4.91853,6.45933 c 2.70519,3.55263 8.03823,8.55861 11.8512,11.1244 l 6.93266,4.66507 h -10.09602 c -9.86844,0 -10.11354,-0.089 -10.8734,-3.94737 z"
   id="path60" /><path
   style="fill:#ff0000;stroke-width:1.43541"
   d=""
   id="path61" /><path
   style="fill:#ff0000;stroke-width:1.43541"
   d=""
   id="path62" /><path
   style="fill:#ff0000;stroke-width:1.43541"
   d="m 339.06781,575.42766 c -5.35481,-1.14922 -11.32969,-2.69541 -13.27751,-3.43597 l -3.5415,-1.34647 v -39.50921 c 0,-36.39458 1.15623,-47.9371 3.39775,-33.91941 2.72349,17.03179 17.54808,51.93783 30.08812,70.8456 l 6.42595,9.689 -6.6784,-0.11703 c -3.67311,-0.0644 -11.0596,-1.05729 -16.41441,-2.20651 z"
   id="path63" /><path
   style="fill:#ff0000;stroke-width:1.43541"
   d="M 358.46054,566.62679 C 345.1365,545.82922 331.82547,514.7564 328.63779,497.00957 l -0.96685,-5.38278 h 40.35113 40.35114 v 39.50922 39.50921 l -3.94737,1.52015 c -6.28111,2.4189 -24.38174,5.58583 -31.92586,5.58583 h -6.91254 z"
   id="path64" /><path
   style="fill:#ff0000;stroke-width:1.43541"
   d="m 411.24402,530.38278 c 0,-35.99527 0.17893,-38.74818 2.51196,-38.64639 1.72385,0.0752 4.87248,4.91644 10.03571,15.43062 5.1085,10.40274 10.75479,19.11052 17.58882,27.12573 l 10.06508,11.8047 -7.48062,5.91309 c -7.09821,5.61082 -28.1139,17.12823 -31.25368,17.12823 -0.96319,0 -1.46727,-13.31453 -1.46727,-38.75598 z"
   id="path65" /><path
   style="fill:#ff0000;stroke-width:1.43541"
   d="m 517.05824,575.42766 c -5.35481,-1.14922 -11.32969,-2.69541 -13.27751,-3.43597 l -3.5415,-1.34647 v -39.50921 -39.50922 h 40.76247 40.76247 l -2.69259,10.51071 c -5.45853,21.30769 -16.9784,47.00691 -29.55126,65.9247 l -6.43935,9.689 -8.14336,-0.11703 c -4.47884,-0.0644 -12.52456,-1.05729 -17.87937,-2.20651 z"
   id="path66" /><path
   style="fill:#ff0000;stroke-width:1.43541"
   d="m 483.72972,563.71822 c -10.69619,-5.68858 -18.10629,-10.49994 -23.26573,-15.10639 l -3.17238,-2.83236 7.9657,-8.7749 c 9.29041,-10.23418 20.80482,-28.32588 24.41165,-38.35614 1.75277,-4.87429 3.31618,-7.02164 5.1122,-7.02164 2.42886,0 2.58726,2.37279 2.58726,38.75599 0,30.06798 -0.40222,38.74751 -1.79426,38.71821 -0.98684,-0.0208 -6.31684,-2.44302 -11.84444,-5.38277 z"
   id="path67" /><path
   style="fill:#ff0000;stroke-width:1.43541"
   d="m 547.60766,577.28438 c 0,-0.48349 2.82544,-5.25926 6.27875,-10.61283 3.45332,-5.35356 9.0231,-15.20617 12.37729,-21.89469 6.12169,-12.20714 17.22912,-43.66882 17.22912,-48.80131 0,-1.50916 0.65623,-3.14949 1.45829,-3.64519 0.97753,-0.60415 1.33244,12.25617 1.07656,39.00911 l -0.38174,39.91037 -9.33014,2.53745 c -9.8753,2.68571 -28.70813,4.97983 -28.70813,3.49709 z"
   id="path68" /><path
   style="fill:#ff0000;stroke-width:1.43541"
   d="m 589.23445,530.38278 v -38.75599 h 38.75598 c 21.31579,0 38.75598,0.41668 38.75598,0.92594 0,3.28737 -11.5153,23.81135 -18.73678,33.39497 -9.31519,12.3622 -17.6496,20.34737 -30.06705,28.80717 -8.43084,5.74379 -24.7884,14.38389 -27.23179,14.38389 -0.97506,0 -1.47634,-13.15924 -1.47634,-38.75598 z"
   id="path69" /><path
   style="fill:#ff0000;stroke-width:1.43541"
   d="m 589.23445,445.69378 v -43.0622 h 39.28453 39.28454 l 2.28369,8.25359 c 6.76256,24.44082 6.81401,46.97309 0.16062,70.33493 l -2.14621,7.53588 h -39.43358 -39.43359 z"
   id="path70" /><path
   style="fill:#ff0000;stroke-width:1.43541"
   d="m 500.23923,476.274 v -12.48198 l 4.11327,6.3815 c 4.72354,7.32832 10.51404,12.94587 16.70013,16.20134 4.22348,2.22263 4.06488,2.26728 -8.25359,2.32365 l -12.55981,0.0575 z"
   id="path71" /><path
   style="fill:#ff0000;stroke-width:1.43541"
   d="m 494.45973,484.80861 c 0.6865,-2.17105 1.5708,-4.91627 1.96512,-6.10048 0.39431,-1.18421 0.76792,0.59211 0.83025,3.94737 0.0821,4.42048 -0.45906,6.10048 -1.96512,6.10048 -1.61304,0 -1.79895,-0.88388 -0.83025,-3.94737 z"
   id="path72" /><path
   style="fill:#ff0000;stroke-width:1.43541"
   d="m 565.55024,486.37086 c 5.71439,-3.01255 10.24043,-7.15384 15.43405,-14.12206 l 4.27941,-5.74162 -0.97072,8.61244 c -1.60233,14.21629 -1.0654,13.64396 -12.73899,13.57889 -10.27148,-0.0573 -10.29389,-0.0659 -6.00375,-2.32765 z"
   id="path73" /><path
   style="fill:#ff0000;stroke-width:1.43541"
   d="m 589.23445,445.67071 v -43.08527 l 39.02397,0.38192 39.02398,0.38192 2.69743,10.04785 c 1.59381,5.93686 3.02841,17.48298 3.50639,28.22039 0.69767,15.67264 0.35723,20.16489 -2.4748,32.6555 l -3.28375,14.48296 h -39.24661 -39.24661 z"
   id="path74" /><path
   style="fill:#ff0000;stroke-width:1.43541"
   d="m 589.23445,362.44019 c 0,-25.44145 0.50408,-38.75598 1.46727,-38.75598 3.74754,0 25.0447,12.16883 34.63477,19.7897 17.84361,14.17967 35.42532,37.77575 40.60305,54.4926 l 1.00033,3.22966 h -38.85271 -38.85271 z"
   id="path75" /><path
   style="fill:#ff0000;stroke-width:1.43541"
   d="m 584.36108,399.40191 c -7.96429,-29.955 -18.84474,-56.13569 -30.82589,-74.17366 -3.26014,-4.90824 -5.92753,-9.29505 -5.92753,-9.74847 0,-1.419 18.92729,0.69403 29.06698,3.24502 l 9.689,2.43761 v 40.01688 c 0,35.7551 -0.43765,44.10849 -2.00256,38.22262 z"
   id="path76" /><path
   style="fill:#ff0000;stroke-width:1.43541"
   d="m 500.23923,361.17929 v -40.01688 l 9.689,-2.4724 c 5.32895,-1.35982 14.92812,-2.81565 21.3315,-3.2352 l 11.64251,-0.7628 4.29237,6.29036 c 13.67559,20.04121 25.20776,44.9098 31.18766,67.25473 l 3.46808,12.95907 h -40.80556 -40.80556 z"
   id="path77" /><path
   style="fill:#ff0000;stroke-width:1.43541"
   d=""
   id="path78" /><path
   style="fill:#ff0000;stroke-width:1.43541"
   d="m 488.2601,390.61451 c -6.01021,-13.00832 -15.03175,-26.49743 -24.28729,-36.31463 l -6.99794,-7.4226 7.57661,-5.98897 c 7.17337,-5.67022 28.19064,-17.2041 31.34967,-17.2041 0.96319,0 1.46727,13.31453 1.46727,38.75598 0,44.39936 -0.66355,46.4519 -9.10832,28.17432 z"
   id="path79" /><path
   style="fill:#ff0000;stroke-width:1.43541"
   d=""
   id="path80" /><path
   style="fill:#ff0000;stroke-width:1.43541"
   d="m 506.33971,401.56463 c 6.11842,-0.26907 16.13039,-0.26907 22.24881,0 6.11842,0.26907 1.11244,0.48921 -11.12441,0.48921 -12.23684,0 -17.24282,-0.22014 -11.1244,-0.48921 z"
   id="path81" /><path
   style="fill:#ff0000;stroke-width:1.43541"
   d="m 500.30267,415.90909 -0.0634,-13.27751 13.99522,0.0562 c 13.21173,0.053 13.73849,0.16783 9.4094,2.0505 -6.21102,2.70108 -17.28309,13.11108 -20.58324,19.35243 l -2.6945,5.09591 z"
   id="path82" /><path
   style="fill:#ff0000;stroke-width:1.43541"
   d="m 497.85101,412.67943 c 0,-5.92106 0.25338,-8.34331 0.56306,-5.38278 0.30968,2.96053 0.30968,7.80502 0,10.76555 -0.30968,2.96053 -0.56306,0.53828 -0.56306,-5.38277 z"
   id="path83" /><path
   style="fill:#ff0000;stroke-width:1.43541"
   d="m 582.82294,422.87795 c -1.20263,-3.78917 -14.20365,-15.67992 -19.80752,-18.11598 -4.49081,-1.9522 -4.26105,-2.01985 7.04428,-2.07421 13.26154,-0.0638 12.46761,-0.88078 14.30079,14.71671 0.9458,8.04727 0.16337,10.83261 -1.53755,5.47348 z"
   id="path84" /><path
   style="fill:#ff0000;stroke-width:1.43541"
   d="m 589.23445,445.67071 v -43.08527 l 39.02397,0.38192 39.02398,0.38192 2.69743,10.04785 c 1.59381,5.93686 3.02841,17.48298 3.50639,28.22039 0.69767,15.67264 0.35723,20.16489 -2.4748,32.6555 l -3.28375,14.48296 h -39.24661 -39.24661 z"
   id="path85" /><path
   style="fill:#ff0000;stroke-width:1.43541"
   d="m 586.77418,409.09091 c 0.0108,-3.94737 0.28954,-5.39184 0.61948,-3.20993 0.32993,2.18191 0.32111,5.41157 -0.0196,7.17703 -0.34071,1.76546 -0.61065,-0.0197 -0.59988,-3.9671 z"
   id="path86" /><path
   style="fill:#ff0000;stroke-width:1.43541"
   d="m 495.49526,411.60287 c -0.43813,-2.17105 -1.23392,-5.07775 -1.76841,-6.45933 -0.67833,-1.7534 -0.27522,-2.51196 1.33489,-2.51196 1.77691,0 2.30668,1.48351 2.30668,6.45933 0,7.34273 -0.70696,8.29077 -1.87316,2.51196 z"
   id="path87" /><path
   style="fill:#ff0000;stroke-width:1.43541"
   d="m 501.35805,413.84353 c -0.35774,-5.77184 -0.47112,-10.72513 -0.25194,-11.00732 0.21917,-0.28219 4.9645,-0.0545 10.54517,0.50592 l 10.14667,1.01899 -6.45845,4.93139 c -3.55214,2.71226 -8.00477,7.20701 -9.89472,9.98833 l -3.43628,5.05694 z"
   id="path88" /><path
   style="fill:#ff0000;stroke-width:1.43541"
   d="m 583.49282,405.50239 c 0,-0.90377 -9.56938,-1.4354 -25.83732,-1.4354 -16.26794,0 -25.83732,-0.53164 -25.83732,-1.43541 0,-0.86995 -6.22009,-1.43541 -15.78947,-1.43541 H 500.23923 V 361.8072 c 0,-21.66393 0.50684,-39.70221 1.12631,-40.08506 1.79491,-1.10932 23.17682,-4.96322 32.60786,-5.87728 l 8.61456,-0.83492 7.46561,11.87302 c 10.05708,15.99438 19.5376,36.38347 24.93265,53.62085 2.45009,7.82817 5.15258,15.68638 6.00551,17.4627 l 1.55079,3.22966 h 43.53736 c 28.06795,0 43.53734,0.51002 43.53734,1.43541 0,0.92456 -15.1,1.43541 -42.42921,1.43541 -27.92062,0 -42.12585,0.49083 -41.54208,1.4354 0.48793,0.78948 0.20308,1.43541 -0.63299,1.43541 -0.83606,0 -1.52012,-0.64593 -1.52012,-1.43541 z"
   id="path89" /><path
   style="fill:#ff0000;stroke-width:1.43541"
   d="m 589.23445,446.50749 v -42.2485 l -4.14469,0.11785 c -3.93838,0.11197 -4.08128,0.33894 -2.87081,4.55959 0.70063,2.44296 1.27387,6.1116 1.27387,8.15254 0,3.62615 -0.14666,3.57026 -6.42982,-2.45006 -3.5364,-3.38847 -7.89645,-7.11624 -9.68899,-8.28393 -3.50561,-2.2836 -34.18295,-5.14256 -55.29267,-5.15297 l -11.84211,-0.006 V 361.8072 c 0,-21.66393 0.50684,-39.70221 1.12631,-40.08506 1.79491,-1.10932 23.17682,-4.96322 32.60786,-5.87728 l 8.61456,-0.83492 7.46561,11.87302 c 10.07304,16.01977 19.5476,36.40668 24.91961,53.62085 6.38104,20.44752 6.50696,20.69236 10.64198,20.69236 3.60762,0 3.6193,-0.0428 3.62368,-13.27751 0.01,-29.08409 1.87858,-62.79904 3.48122,-62.79904 2.91795,0 24.36008,13.18819 34.00316,20.91397 15.15341,12.1405 34.85271,38.7422 37.92629,51.21521 l 0.97272,3.94737 -15.58623,0.28632 -15.58624,0.28631 16.50718,0.79024 16.50717,0.79024 2.71661,10.04785 c 3.91558,14.48244 4.07525,48.82481 0.29865,64.23445 l -2.72635,11.1244 h -39.25929 -39.25928 z"
   id="path90" /><path
   style="fill:#ff0000;stroke-width:1.43541"
   d="m 163.16467,401.55518 c 60.53004,-0.20722 160.00373,-0.20725 221.05264,-5e-5 61.04891,0.20719 11.52432,0.37674 -110.05463,0.37678 -121.57895,3e-5 -171.52805,-0.1695 -110.99801,-0.37673 z"
   id="path91" /><path
   style="fill:#ff0000;stroke-width:1.43541"
   d="m 415.70856,474.84984 c -4.12829,-17.97402 -3.99801,-40.8488 0.33365,-58.5819 l 3.15564,-12.91866 35.25636,-0.3834 35.25636,-0.3834 2.75237,11.86665 c 4.51379,19.46091 3.26064,62.54137 -2.06805,71.09493 -0.57729,0.92666 -14.12529,1.66827 -36.2892,1.98647 l -35.36799,0.50775 z"
   id="path92" /><path
   style="fill:#ff0000;stroke-width:1.43541"
   d="m 415.70856,474.84984 c -4.12829,-17.97402 -3.99801,-40.8488 0.33365,-58.5819 l 3.15564,-12.91866 35.27657,-0.38344 35.27658,-0.38345 2.73216,11.149 c 4.58315,18.7023 3.35899,63.2014 -1.97098,71.64603 -0.72015,1.14097 -11.88045,1.801 -36.40649,2.15311 l -35.36799,0.50775 z"
   id="path93" /><path
   style="fill:#ff0000;stroke-width:1.43541"
   d="m 409.80861,413.39713 c 0,-6.18421 0.2841,-10.95992 0.63133,-10.61269 1.0474,1.0474 1.32951,19.89587 0.313,20.91238 -0.51938,0.51938 -0.94433,-4.11548 -0.94433,-10.29969 z"
   id="path94" /><path
   style="fill:#803300;stroke-width:1.43541"
   d=""
   id="path95" /><path
   style="fill:#803300;stroke-width:1.43541"
   d="m 450,741.84041 c -1.18421,-0.41575 -10.38876,-4.00373 -20.45455,-7.97329 l -18.30143,-7.21738 v -28.51626 -28.51626 h 43.0622 43.0622 v 28.50912 28.50912 l -11.1244,4.69178 c -12.99822,5.48207 -30.33506,11.54495 -32.54807,11.38241 -0.84856,-0.0623 -2.51174,-0.45349 -3.69595,-0.86924 z"
   id="path96" /><path
   style="fill:#803300;stroke-width:1.43541"
   d="M 393.83793,717.2107 C 372.19697,705.07181 353.891,692.00016 334.44976,674.80369 l -5.74163,-5.07868 39.83254,-0.0539 39.83254,-0.0539 v 27.27273 c 0,15 -0.48445,27.27125 -1.07656,27.26945 -0.5921,-0.002 -6.64853,-3.12872 -13.45872,-6.9487 z"
   id="path97" /><path
   style="fill:#803300;stroke-width:1.43541"
   d="m 500.23923,696.88995 v -27.27273 l 39.83254,0.0643 39.83254,0.0643 -7.17704,6.55709 c -10.68094,9.75834 -33.27905,26.43706 -46.86601,34.58984 -11.93569,7.16195 -23.37246,13.26988 -24.84714,13.26988 -0.42619,0 -0.77489,-12.27273 -0.77489,-27.27273 z"
   id="path98" /><path
   style="fill:#803300;stroke-width:1.43541"
   d="m 411.24402,741.26133 c 0,-8.79277 0.4417,-11.47106 1.79426,-10.87971 10.14061,4.43354 23.75322,9.79852 28.37635,11.18364 6.70006,2.00738 7.24927,3.44137 1.76719,4.61408 -2.17105,0.46442 -8.79187,1.84376 -14.71292,3.06519 -5.92105,1.22143 -12.2189,2.54933 -13.99522,2.95088 -3.14421,0.71078 -3.22966,0.42149 -3.22966,-10.93408 z"
   id="path99" /><path
   style="fill:#803300;stroke-width:1.43541"
   d="m 493.7799,752.14078 c -0.78947,-0.27686 -8.37918,-1.9249 -16.86602,-3.6623 -8.48685,-1.73741 -15.43063,-3.72065 -15.43063,-4.40722 0,-0.68656 0.82215,-1.24829 1.827,-1.24829 1.73279,0 17.0045,-5.67681 28.6754,-10.65923 l 5.38277,-2.29796 v 11.50252 c 0,6.32638 -0.48445,11.45152 -1.07655,11.38919 -0.59211,-0.0623 -1.72249,-0.33984 -2.51197,-0.61671 z"
   id="path100" /><path
   style="fill:#803300;stroke-width:1.43541"
   d="m 429.1866,752.13898 c 8.68421,-1.88119 17.85914,-4.04736 20.38872,-4.8137 3.34899,-1.01458 6.86082,-0.79592 12.91867,0.80436 4.57567,1.20874 13.80984,3.35385 20.52036,4.76693 l 12.20096,2.56922 -40.90909,0.0468 -40.90909,0.0468 z"
   id="path101" /><path
   style="fill:#803300;stroke-width:1.43541"
   d="m 335.88517,216.62003 c 8.84286,-7.97839 25.8386,-21.11604 37.32057,-28.84867 8.67234,-5.84046 32.42679,-19.11107 34.20889,-19.11107 0.52722,0 0.95858,12.27272 0.95858,27.27272 v 27.27273 l -39.83254,-0.0551 -39.83254,-0.0551 z"
   id="path102" /><path
   style="fill:#803300;stroke-width:1.43541"
   d="m 411.24402,194.67537 v -28.53036 l 13.99521,-5.74483 c 7.69737,-3.15966 17.42902,-6.85836 21.62589,-8.21935 l 7.63067,-2.47451 13.18273,4.56969 c 7.2505,2.51333 16.89684,6.22025 21.43631,8.2376 l 8.25359,3.66791 v 28.51211 28.51211 h -43.0622 -43.0622 z"
   id="path103" /><path
   style="fill:#803300;stroke-width:1.43541"
   d="m 411.57253,194.94383 0.38919,-28.26191 8.61244,-3.51933 c 4.73684,-1.93563 14.33479,-5.58794 21.32877,-8.11625 l 12.71633,-4.59692 14.5564,5.2874 c 8.00602,2.90807 17.62458,6.64622 21.37458,8.30701 l 6.81818,3.01962 v 28.07115 28.07114 h -43.09254 -43.09255 z"
   id="path104" /><path
   style="fill:#803300;stroke-width:1.43541"
   d="m 500.23923,195.20304 v -28.0027 l 8.25359,4.52922 c 24.18382,13.27108 47.6743,29.58359 63.51675,44.10796 l 7.89474,7.23791 -39.83254,0.0651 -39.83254,0.0652 z"
   id="path105" /><path
   style="fill:#803300;stroke-width:1.43541"
   d="m 447.12919,144.79847 c -3.55263,-1.1231 -12.27273,-3.27304 -19.37799,-4.77765 l -12.91866,-2.73565 40.19138,0.0936 c 22.10527,0.0515 38.57656,0.36964 36.60287,0.70707 -4.97651,0.8508 -33.25289,7.19693 -35.88516,8.05379 -1.18421,0.38548 -5.05981,-0.21802 -8.61244,-1.34112 z"
   id="path106" /><path
   style="fill:#803300;stroke-width:1.43541"
   d="m 435.64593,234.5858 c -9.07894,-3.0093 -18.44497,-5.99347 -20.81339,-6.6315 -2.83119,-0.76268 3.19189,-1.29577 17.58373,-1.55628 33.86286,-0.61296 66.37366,0.2078 61.36363,1.54919 -2.36842,0.63412 -12.22622,3.7023 -21.90623,6.81818 -9.68001,3.11588 -18.07714,5.58122 -18.66029,5.47855 -0.58315,-0.10268 -8.4885,-2.64884 -17.56745,-5.65814 z"
   id="path107" /><path
   style="fill:#803300;stroke-width:1.43541"
   d="m 432.41627,667.10816 c 12.03947,-0.24009 31.74043,-0.24009 43.7799,0 12.03948,0.24008 2.189,0.43652 -21.88995,0.43652 -24.07895,0 -33.92943,-0.19644 -21.88995,-0.43652 z"
   id="path108" /><path
   style="fill:#ffcc00;stroke-width:1.43541"
   d="m 412.67943,665.43209 c 1.18421,-0.67486 4.41387,-1.67991 7.17703,-2.23345 2.76316,-0.55353 11.67532,-3.27 19.8048,-6.03658 l 14.78087,-5.03016 18.95119,6.04088 c 10.42315,3.32249 20.24304,6.56703 21.82199,7.21011 1.57895,0.64307 -16.83014,1.1933 -40.90909,1.22272 -24.92204,0.0305 -42.85247,-0.47503 -41.62679,-1.17352 z"
   id="path109" /><path
   style="fill:#ffcc00;stroke-width:1.43541"
   d="m 264.83254,311.30111 c 0,-1.87751 12.27518,-23.29313 20.25094,-35.33036 8.27007,-12.48139 19.25635,-26.73912 29.04452,-37.69324 l 5.13049,-5.74162 0.0598,39.83253 0.0598,39.83254 h -27.27273 c -15,0 -27.27272,-0.40493 -27.27272,-0.89985 z"
   id="path110" /><path
   style="fill:#ffcc00;stroke-width:1.43541"
   d="m 237.6218,399.04306 c -0.0606,-10.22509 9.02959,-43.54533 18.30716,-67.10526 l 6.6416,-16.86603 h 28.40372 c 24.20646,0 28.40371,0.31606 28.40371,2.13882 0,1.23904 -3.88056,3.89835 -9.2243,6.32132 -29.68084,13.45793 -52.51065,36.19434 -66.97705,66.70303 -3.04581,6.42342 -5.54549,10.38707 -5.55484,8.80812 z"
   id="path111" /><path
   style="fill:#ffcc00;stroke-width:1.43541"
   d="m 321.44697,271.29187 c 6.8e-4,-22.89474 0.19886,-32.05977 0.44041,-20.36674 0.24155,11.69303 0.24099,30.42509 -0.001,41.62679 -0.24223,11.20171 -0.43986,1.63468 -0.43917,-21.26005 z"
   id="path112" /><path
   style="fill:#ffcc00;stroke-width:1.43541"
   d="m 323.77191,359.25062 -0.0877,-36.92162 7.62298,-2.21606 c 7.53264,-2.1898 27.04791,-5.11582 28.07481,-4.2094 0.29167,0.25746 -2.05618,4.56353 -5.21744,9.56905 -9.75674,15.4487 -17.6994,32.57435 -24.13521,52.03937 l -6.16974,18.66029 z"
   id="path113" /><path
   style="fill:#ffcc00;stroke-width:1.43541"
   d="m 322.58564,270.99132 0.38087,-41.20963 5.02392,-1.18974 c 9.70393,-2.29803 51.45618,-3.00746 66.22551,-1.12527 l 14.15727,1.80419 v 19.08864 19.08864 l -4.66508,3.82763 c -8.05385,6.60809 -30.54214,29.26856 -34.9221,35.18949 l -4.19273,5.66783 -21.19426,0.0339 -21.19426,0.0339 z"
   id="path114" /><path
   style="fill:#ffcc00;stroke-width:1.43541"
   d="m 322.2488,316.50718 c 0,-0.78948 2.42225,-1.37102 5.38278,-1.29233 4.80391,0.1277 4.99686,0.26667 1.79426,1.29233 -5.13093,1.64321 -7.17704,1.64321 -7.17704,0 z"
   id="path115" /><path
   style="fill:#ffcc00;stroke-width:1.43541"
   d="m 411.24402,290.62063 v -21.58032 l 11.1244,-7.15074 c 6.11842,-3.93291 15.77658,-9.55504 21.46258,-12.49361 l 10.33817,-5.34287 9.75752,4.80229 c 5.36664,2.64126 15.08647,8.27105 21.59963,12.51064 l 11.8421,7.70834 v 21.5633 21.5633 h -43.0622 -43.0622 z"
   id="path116" /><path
   style="fill:#ffcc00;stroke-width:1.43541"
   d="m 371.11871,308.25359 c 7.51854,-8.63421 26.79395,-28.08582 31.87172,-32.16308 l 5.38278,-4.32217 v 20.21631 20.21631 H 388.0273 367.6814 Z"
   id="path117" /><path
   style="fill:#ffcc00;stroke-width:1.43541"
   d="m 411.24402,247.60766 c 0,-9.47369 0.16148,-17.22326 0.35885,-17.22126 2.15357,0.0217 27.68327,7.59002 32.39797,9.60439 l 6.2018,2.64975 -11.60867,6.18536 c -6.38477,3.40194 -14.8924,8.39514 -18.90585,11.09599 -4.01345,2.70086 -7.55524,4.91065 -7.87064,4.91065 -0.3154,0 -0.57346,-7.7512 -0.57346,-17.22488 z"
   id="path118" /><path
   style="fill:#ffcc00;stroke-width:1.43541"
   d="m 487.53263,258.93262 c -5.01495,-3.2118 -13.66147,-8.30493 -19.21448,-11.31807 l -10.0964,-5.47843 15.62597,-4.98109 c 8.59428,-2.7396 17.40228,-5.39641 19.57333,-5.90402 l 3.94737,-0.92293 v 17.25223 c 0,9.48872 -0.16148,17.23866 -0.35885,17.22209 -0.19737,-0.0166 -4.46199,-2.65798 -9.47694,-5.86978 z"
   id="path119" /><path
   style="fill:#ffcc00;stroke-width:1.43541"
   d="m 500.23923,292.00752 v -20.19344 l 4.52038,3.21879 c 5.6236,4.00436 28.79103,27.23152 32.85716,32.94187 l 3.00934,4.22622 h -20.19344 -20.19344 z"
   id="path120" /><path
   style="fill:#ffcc00;stroke-width:1.43541"
   d="m 535.2957,300.69071 c -5.34232,-6.33063 -15.43358,-16.44187 -22.42501,-22.46942 l -12.71171,-10.95918 0.39898,-18.73622 0.39898,-18.73622 5.74162,-1.42165 c 7.46451,-1.84824 65.7475,-1.84712 73.20575,0.001 l 5.74162,1.42307 0.38087,41.20423 0.38086,41.20423 h -20.69933 -20.69932 z"
   id="path121" /><path
   style="fill:#ffcc00;stroke-width:1.43541"
   d="m 589.23445,272.55151 c 0,-35.66572 0.22375,-39.46374 2.22698,-37.80121 4.33862,3.60074 20.43882,23.81011 29.68334,37.25927 8.5017,12.36849 22.63513,36.86556 22.63513,39.23281 0,0.52722 -12.27272,0.95858 -27.27272,0.95858 h -27.27273 z"
   id="path122" /><path
   style="fill:#ffcc00;stroke-width:1.43541"
   d="m 667.59965,394.39458 c -11.38377,-28.44511 -34.80755,-53.52027 -63.65228,-68.13977 -8.09211,-4.10136 -14.71292,-8.29537 -14.71292,-9.32003 0,-1.46474 6.11382,-1.86301 28.59901,-1.86301 h 28.599 l 6.57252,16.86603 c 7.43951,19.09085 12.46538,35.83923 15.91851,53.04741 2.90167,14.46003 2.32832,18.53518 -1.32384,9.40937 z"
   id="path123" /><path
   style="fill:#ffcc00;stroke-width:1.43541"
   d="m 444.16666,336.96172 c -5.1482,-3.75 -14.66188,-9.30274 -21.14151,-12.33943 -19.48016,-9.12943 -18.10095,-9.55052 31.28107,-9.55052 35.96548,0 43.0622,0.33137 43.0622,2.01074 0,1.10859 -5.95721,4.94005 -13.27751,8.53962 -7.30263,3.59089 -16.68177,9.14538 -20.84252,12.34333 -4.16075,3.19794 -8.05018,5.81444 -8.64317,5.81444 -0.593,0 -5.29035,-3.06818 -10.43856,-6.81818 z"
   id="path124" /><path
   style="fill:#ffcc00;stroke-width:1.43541"
   d=""
   id="path125" /><path
   style="fill:#ffcc00;stroke-width:1.43541"
   d="m 371.8467,308.97129 c 5.42162,-6.54723 28.75587,-30.07949 32.57914,-32.85559 l 3.94737,-2.86621 v 19.47573 19.47574 h -19.60047 -19.60046 z"
   id="path126" /><path
   style="fill:#ffcc00;stroke-width:1.43541"
   d="m 443.34611,335.52061 c -5.63332,-3.74913 -14.83787,-9.03975 -20.45455,-11.75692 -5.61667,-2.71717 -10.21213,-5.36589 -10.21213,-5.88604 0,-1.42507 44.78279,-2.61424 65.21651,-1.73177 9.87287,0.42638 17.59909,1.34411 17.16937,2.03941 -0.42972,0.6953 -5.14523,3.46181 -10.47891,6.14782 -5.33369,2.686 -14.012,7.83738 -19.28514,11.44751 -5.27314,3.61013 -10.0657,6.56224 -10.65013,6.56024 -0.58444,-0.002 -5.6717,-3.07111 -11.30502,-6.82025 z"
   id="path127" /><path
   style="fill:#ffcc00;stroke-width:1.43541"
   d=""
   id="path128" /><path
   style="fill:#ff0000;stroke-width:1.43541"
   d=""
   id="path129" /><path
   style="fill:#ffff00;stroke-width:1.43541"
   d="m 325.22851,368.76118 c -0.0599,-11.12871 -0.51875,-26.00807 -1.01968,-33.06523 l -0.91078,-12.8312 10.59978,-2.40768 c 5.82988,-1.32422 13.77269,-2.84372 17.65069,-3.37667 l 7.05091,-0.96899 -4.63862,7.73377 c -7.96929,13.28683 -18.75357,36.44829 -23.78943,51.09271 l -4.83398,14.05733 z"
   id="path130" /><path
   style="fill:#d4aa00;stroke-width:1.43541"
   d="m 333.73206,664.78463 -10.76555,-1.62674 -0.38087,-41.26794 -0.38086,-41.26794 h 21.25816 21.25815 l 5.20747,6.81818 c 5.33632,6.9869 27.39178,28.95385 34.53977,34.40116 l 3.98986,3.04058 -0.40135,19.13798 -0.40134,19.13798 -10.76555,1.70418 c -13.44035,2.12759 -48.85263,2.08417 -63.15789,-0.0774 z"
   id="path131" /><path
   style="fill:#aa8800;stroke-width:1.43541"
   d="m 331.79749,663.80569 c -3.82718,-0.64221 -7.15897,-1.37365 -7.40398,-1.62543 -0.24502,-0.25177 -0.66633,-18.70566 -0.93624,-41.00863 l -0.49076,-40.55086 20.10105,6.2e-4 20.10104,6.2e-4 9.82502,11.1244 c 5.40376,6.11842 15.41332,16.26311 22.24345,22.54375 l 12.41843,11.41934 -0.50503,18.00649 c -0.27777,9.90358 -0.67408,18.1875 -0.88069,18.40873 -2.72735,2.92018 -59.45648,4.20066 -74.47229,1.68097 z"
   id="path132" /><path
   style="fill:#ffd42a;stroke-width:1.43541"
   d="m 329.28203,662.93069 c -3.69137,-0.63266 -3.74248,-0.81603 -4.65854,-16.71342 -0.50942,-8.84055 -0.92916,-27.21607 -0.93275,-40.83449 l -0.007,-24.76077 h 18.6884 18.68841 l 23.13509,23.28136 23.13509,23.28135 -0.78412,17.01898 c -0.43127,9.36044 -1.21879,17.45441 -1.75004,17.98659 -1.07536,1.07723 -69.62804,1.74936 -75.51501,0.7404 z"
   id="path133" /><path
   style="fill:#ffd42a;stroke-width:1.43541"
   d="m 441.90356,642.23985 c -6.20485,-3.26699 -15.6416,-8.86445 -20.97055,-12.4388 l -9.68899,-6.49882 v -21.34011 -21.34011 h 43.0622 43.0622 v 21.42087 21.42086 l -9.68899,6.41929 c -10.91627,7.2324 -26.79646,16.02012 -31.4218,17.38809 -2.09696,0.62018 -6.65453,-0.9773 -14.35407,-5.03127 z"
   id="path134" /><path
   style="fill:#ffd42a;stroke-width:1.43541"
   d="m 387.55981,601.43541 -20.0957,-20.0957 19.93429,-0.40064 c 10.96386,-0.22035 20.18721,-0.14772 20.49634,0.16141 0.30913,0.30913 0.38176,9.53248 0.16141,20.49634 l -0.40065,19.93428 z"
   id="path135" /><path
   style="fill:#ffd42a;stroke-width:1.43541"
   d="m 411.24402,645.24266 c 0,-9.48873 0.30282,-17.25223 0.67294,-17.25223 0.37012,0 5.05314,2.82417 10.4067,6.27593 5.35357,3.45176 13.89365,8.36755 18.97797,10.92398 l 9.24421,4.64806 -4.64458,1.9529 c -5.02899,2.11453 -24.31752,8.24869 -30.70987,9.76639 l -3.94737,0.9372 z"
   id="path136" /><path
   style="fill:#ffd42a;stroke-width:1.43541"
   d="m 486.30712,659.39589 c -5.68898,-1.47901 -14.34232,-4.18453 -19.22964,-6.01226 l -8.88604,-3.32316 11.53394,-6.00062 c 6.34366,-3.30034 14.92598,-8.28329 19.07181,-11.07323 4.14583,-2.78993 7.79162,-4.81886 8.10177,-4.50872 0.31014,0.31014 0.38116,7.99862 0.15782,17.0855 l -0.40606,16.52161 z"
   id="path137" /><path
   style="fill:#ffd42a;stroke-width:1.43541"
   d="m 511.72249,664.78463 -10.76555,-1.62674 -0.39878,-18.76915 -0.39877,-18.76915 9.01121,-7.78587 c 11.12151,-9.6092 27.35778,-26.30237 31.6463,-32.53683 l 3.20224,-4.65526 21.19426,-0.01 21.19426,-0.01 -0.38086,41.26794 -0.38087,41.26794 -11.48325,1.7009 c -14.33654,2.12352 -48.16207,2.08335 -62.44019,-0.0742 z"
   id="path138" /><path
   style="fill:#ffd42a;stroke-width:1.43541"
   d="m 589.23445,620.27145 v -39.64944 h 27.27273 c 15,0 27.27272,0.42934 27.27272,0.9541 0,1.83268 -11.97121,22.82893 -19.91501,34.92882 -8.04048,12.24717 -28.10718,38.00214 -32.35698,41.52916 -2.06501,1.71381 -2.27346,-1.7486 -2.27346,-37.76264 z"
   id="path139" /><path
   style="fill:#ffd42a;stroke-width:1.43541"
   d="m 589.23445,575.61238 c 0,-1.23561 3.83598,-3.87814 9.08365,-6.25755 31.19576,-14.14483 56.70105,-40.26677 69.23066,-70.90447 1.53239,-3.74704 3.17098,-6.81523 3.6413,-6.81819 0.96993,-0.006 -1.87658,15.90444 -5.21854,29.16907 -3.33206,13.22533 -7.4919,25.83267 -13.93627,42.23704 l -5.7799,14.71292 H 617.7449 c -24.30102,0 -28.51045,-0.31579 -28.51045,-2.13882 z"
   id="path140" /><path
   style="fill:#ffd42a;stroke-width:1.43541"
   d="m 500.23923,600.82189 v -20.19988 h 20.21631 20.21632 l -4.29133,5.38277 c -4.92843,6.18193 -26.32875,27.43002 -32.19393,31.96491 l -3.94737,3.05207 z"
   id="path141" /><path
   style="fill:#ffd42a;stroke-width:1.43541"
   d="m 411.24402,575.74045 c 0,-1.10783 5.96216,-4.94714 13.27751,-8.55 7.30263,-3.5966 17.04837,-9.40522 21.65719,-12.90806 l 8.37968,-6.36879 9.26457,7.01233 c 5.09552,3.85678 14.72777,9.65667 21.40501,12.88864 19.78837,9.57812 18.67273,9.93663 -30.92176,9.93663 -35.96548,0 -43.0622,-0.33138 -43.0622,-2.01075 z"
   id="path142" /><path
   style="fill:#ffd42a;stroke-width:1.43541"
   d=""
   id="path143" /><path
   style="fill:#ffd42a;stroke-width:1.43541"
   d="m 258.81739,568.0622 c -8.67922,-19.11334 -21.3518,-63.62223 -21.22827,-74.55832 0.0161,-1.42713 2.81816,3.21861 6.22675,10.32387 14.36656,29.94729 41.77176,56.27746 69.12816,66.41646 4.32681,1.60363 6.43396,3.2234 6.43396,4.94579 0,2.37071 -2.08846,2.5612 -28.08045,2.5612 h -28.08045 z"
   id="path144" /><path
   style="fill:#ffd42a;stroke-width:1.43541"
   d="m 307.25971,646.29187 c -13.97798,-16.84789 -25.87193,-34.19642 -35.14413,-51.26127 -4.00567,-7.37218 -7.28304,-13.63001 -7.28304,-13.90628 0,-0.27627 12.27272,-0.50231 27.27272,-0.50231 h 27.27273 v 39.47368 c 0,21.71053 -0.24806,39.47369 -0.55125,39.47369 -0.30318,0 -5.50835,-5.97488 -11.56703,-13.27751 z"
   id="path145" /><path
   style="fill:#ffd42a;stroke-width:1.43541"
   d="m 297.04887,656.06328 c -16.61283,-5.52513 -39.57689,-16.69612 -53.89779,-26.21887 l -9.89749,-6.58139 v -21.32051 -21.3205 h 14.04598 14.04599 l 4.60951,9.3476 c 9.13495,18.52473 26.9887,44.70973 44.27449,64.9347 3.00557,3.51661 4.37525,6.07064 3.23382,6.03003 -1.08907,-0.0388 -8.4756,-2.23072 -16.41451,-4.87106 z"
   id="path146" /><path
   style="fill:#ffd42a;stroke-width:1.43541"
   d="m 233.38284,534.33014 0.12926,-43.42105 3.45137,16.86817 c 3.69181,18.04324 10.92147,41.75862 17.85858,58.58128 2.34787,5.69365 4.26886,10.58622 4.26886,10.87238 0,0.28615 -5.8134,0.52028 -12.91866,0.52028 h -12.91866 z"
   id="path147" /><path
   style="fill:#ffd42a;stroke-width:1.43541"
   d="m 597.89119,655.62201 c 19.52887,-23.05492 31.78314,-40.596 43.62099,-62.44019 l 6.80643,-12.55981 h 13.52012 13.52012 v 21.41816 21.41816 l -11.1244,7.36118 c -14.9429,9.88792 -34.44123,19.19631 -52.82536,25.2185 -8.33922,2.73173 -15.81814,4.96677 -16.61982,4.96677 -0.80168,0 0.59418,-2.42224 3.10192,-5.38277 z"
   id="path148" /><path
   style="fill:#ffd42a;stroke-width:1.43541"
   d="m 649.52153,577.34877 c 0,-0.22134 2.24971,-5.73668 4.99934,-12.25633 6.77201,-16.05704 13.03608,-36.63119 17.15851,-56.35657 l 3.42565,-16.39137 0.12691,42.70335 0.12691,42.70335 h -12.91866 c -7.10526,0 -12.91866,-0.1811 -12.91866,-0.40243 z"
   id="path149" /><path
   style="fill:#ffd42a;stroke-width:1.43541"
   d="m 661.89227,347.8585 c -0.61171,-3.05859 -7.98768,-22.3096 -11.87466,-30.99247 -0.6101,-1.36286 2.33978,-1.79426 12.26901,-1.79426 h 13.07223 v 17.79805 17.79805 l -6.35132,0.50514 c -5.89638,0.46895 -6.40605,0.23153 -7.11526,-3.31451 z"
   id="path150" /><path
   style="fill:#ffd42a;stroke-width:1.43541"
   d="m 641.57463,299.64115 c -9.55816,-17.7273 -22.98595,-37.54373 -36.48294,-53.84073 -6.36896,-7.69023 -10.93522,-13.98224 -10.14723,-13.98224 0.78798,0 7.73827,2.01438 15.44507,4.4764 18.29733,5.84527 37.51538,14.8844 52.72752,24.80018 l 12.2418,7.9796 v 21.5633 21.5633 H 661.85272 648.3466 Z"
   id="path151" /><path
   style="fill:#ffd42a;stroke-width:1.43541"
   d="m 663.18664,349.16268 c -1.0046,-3.00988 -10.29944,-27.47779 -11.37289,-29.93819 -0.8178,-1.87443 0.25543,-2.47955 5.72809,-3.22966 3.70394,-0.50768 9.22802,-0.92306 12.27573,-0.92306 h 5.54128 v 17.07131 c 0,14.24265 -0.37621,17.21567 -2.27051,17.94258 -3.83956,1.47338 -9.27086,0.9671 -9.9017,-0.92298 z"
   id="path152" /><path
   style="fill:#ffd42a;stroke-width:1.43541"
   d="m 672.67799,389.01703 c -0.99289,-5.90906 -3.35494,-16.37632 -5.24899,-23.26058 -1.89405,-6.88426 -3.30692,-12.62179 -3.13971,-12.75005 0.1672,-0.12827 2.72626,-0.67114 5.68679,-1.20638 l 5.38277,-0.97317 v 24.46696 c 0,13.45682 -0.19701,24.46696 -0.4378,24.46696 -0.24078,0 -1.25016,-4.83469 -2.24306,-10.74374 z"
   id="path153" /><path
   style="fill:#ffd42a;stroke-width:1.43541"
   d="m 278.11005,311.13303 c -6.51316,-0.26597 -11.84211,-0.83052 -11.84211,-1.25457 0,-0.42404 3.8756,-7.40158 8.61244,-15.50564 4.73684,-8.10406 8.61244,-15.42836 8.61244,-16.27623 0,-0.84786 0.55879,-1.75688 1.24175,-2.02004 0.68295,-0.26315 6.14438,-6.93779 12.13651,-14.83253 5.99212,-7.89474 13.16028,-16.9378 15.92924,-20.09569 l 5.03447,-5.74163 0.0625,26.55502 c 0.0344,14.60527 0.47733,31.88397 0.98435,38.39713 l 0.92186,11.84211 -14.92568,-0.29217 c -8.20911,-0.1607 -20.25461,-0.50979 -26.76777,-0.77576 z"
   id="path154" /><path
   style="fill:#ffd42a;stroke-width:1.43541"
   d="m 233.25359,290.78009 v -21.42087 l 10.0924,-6.70942 c 15.19483,-10.1015 34.7821,-19.60667 52.60147,-25.52607 8.78431,-2.91805 16.73443,-5.30555 17.66694,-5.30555 0.9325,0 -0.65098,2.74522 -3.51886,6.10048 -17.36128,20.31179 -34.36973,45.13815 -43.26926,63.1579 l -5.49409,11.1244 h -14.0393 -14.0393 z"
   id="path155" /><path
   style="fill:#917c6f;stroke-width:1.43541"
   d="m 233.38314,358.49282 -0.12955,-43.42105 h 12.91866 c 7.10526,0 12.91866,0.18849 12.91866,0.41887 0,0.23038 -2.49175,6.52823 -5.53721,13.99522 -6.8767,16.86053 -12.57671,36.07878 -16.79865,56.63854 l -3.24235,15.78948 z"
   id="path156" /><path
   style="fill:#917c6f;stroke-width:1.43541"
   d="m 678.22967,445.69378 v -43.0622 h 40.76173 40.76174 l 1.53797,8.97129 c 3.66354,21.3703 3.292,57.38776 -0.76257,73.92345 l -0.79191,3.22966 h -40.75348 -40.75348 z"
   id="path157" /><path
   style="fill:#917c6f;stroke-width:1.43541"
   d="m 678.22967,358.13397 v -43.0622 h 21.40138 21.40138 l 6.43059,9.76101 c 3.53682,5.36856 9.45661,15.7862 13.1551,23.15033 6.98831,13.91456 17.93638,44.36114 17.97318,49.9834 l 0.0211,3.22966 h -40.19139 -40.19138 z"
   id="path158" /><path
   style="fill:#917c6f;stroke-width:1.43541"
   d="m 678.22967,292.00108 v -20.19987 l 3.94736,3.05415 c 5.91568,4.57706 24.26643,22.7768 30.78074,30.52742 l 5.73061,6.81818 h -20.22936 -20.22935 z"
   id="path159" /><path
   style="fill:#917c6f;stroke-width:1.43541"
   d="m 678.22967,534.689 v -43.06221 h 40.35113 40.35114 l -0.97533,5.38278 c -3.29706,18.19628 -16.25374,48.4505 -29.81428,69.61722 l -7.1269,11.12441 h -21.39288 -21.39288 z"
   id="path160" /><path
   style="fill:#917c6f;stroke-width:1.43541"
   d="m 678.22967,600.96791 v -20.3459 h 20.22935 20.22936 l -5.76832,6.81818 c -5.4259,6.41344 -21.97099,22.79261 -30.74303,30.43472 l -3.94736,3.43891 z"
   id="path161" /><path
   style="fill:#917c6f;stroke-width:1.43541"
   d="m 191.62679,310.95119 c 0,-1.80062 23.19955,-26.18436 31.62168,-33.23577 l 7.13431,-5.97318 v 20.22936 20.22936 h -19.378 c -10.65789,0 -19.37799,-0.5624 -19.37799,-1.24977 z"
   id="path162" /><path
   style="fill:#917c6f;stroke-width:1.43541"
   d="m 150.65365,396.00884 c 3.38372,-18.03677 17.23477,-50.35493 30.2282,-70.53037 l 6.70214,-10.4067 h 21.39939 21.3994 v 43.0622 43.0622 H 190.03164 149.6805 Z"
   id="path163" /><path
   style="fill:#917c6f;stroke-width:1.43541"
   d="m 147.99944,484.04041 c -3.90512,-20.8161 -4.11875,-44.76712 -0.62688,-70.28443 l 1.52229,-11.1244 h 40.74396 40.74397 v 43.0622 43.0622 h -40.74935 -40.74934 z"
   id="path164" /><path
   style="fill:#917c6f;stroke-width:1.43541"
   d="M 181.12274,567.33587 C 168.4458,548.27506 154.06236,514.98409 150.65365,496.81412 l -0.97315,-5.18733 h 40.35114 40.35114 v 43.06221 43.0622 l -21.17225,-0.009 -21.17225,-0.009 z"
   id="path165" /><path
   style="fill:#917c6f;stroke-width:1.43541"
   d="m 210.20583,602.23436 c -10.21847,-10.21847 -18.57904,-19.26153 -18.57904,-20.09569 0,-0.99038 6.7242,-1.51666 19.37799,-1.51666 h 19.378 v 20.09569 c 0,11.05263 -0.35953,20.0957 -0.79896,20.0957 -0.43942,0 -9.15952,-8.36057 -19.37799,-18.57904 z"
   id="path166" /></svg>
